<svg width="28" height="22" viewBox="0 0 28 22" fill="none" xmlns="http://www.w3.org/2000/svg">
<path d="M4.5 0C3.30653 0 2.16193 0.474106 1.31802 1.31802C0.474106 2.16193 0 3.30653 0 4.5V17.5C0 18.6935 0.474106 19.8381 1.31802 20.682C2.16193 21.5259 3.30653 22 4.5 22H23.5C24.6935 22 25.8381 21.5259 26.682 20.682C27.5259 19.8381 28 18.6935 28 17.5V4.5C28 3.30653 27.5259 2.16193 26.682 1.31802C25.8381 0.474106 24.6935 0 23.5 0H4.5ZM26 5.403L14 11.864L2 5.403V4.5C2 3.83696 2.26339 3.20107 2.73223 2.73223C3.20107 2.26339 3.83696 2 4.5 2H23.5C24.163 2 24.7989 2.26339 25.2678 2.73223C25.7366 3.20107 26 3.83696 26 4.5V5.403ZM2 7.674L13.526 13.881C13.6717 13.9594 13.8345 14.0005 14 14.0005C14.1655 14.0005 14.3283 13.9594 14.474 13.881L26 7.674V17.5C26 18.163 25.7366 18.7989 25.2678 19.2678C24.7989 19.7366 24.163 20 23.5 20H4.5C3.83696 20 3.20107 19.7366 2.73223 19.2678C2.26339 18.7989 2 18.163 2 17.5V7.674Z" fill="#0E3256"/>
</svg>
