<svg width="21" height="27" viewBox="0 0 21 27" fill="none" xmlns="http://www.w3.org/2000/svg">
<path d="M2.05379 7.69174C1.67279 5.17774 3.44679 2.91574 6.15679 2.08574C6.63796 1.93847 7.15719 1.98032 7.60856 2.20275C8.05994 2.42519 8.40944 2.81145 8.58579 3.28274L9.45479 5.60274C9.59451 5.97593 9.61956 6.38235 9.52673 6.76987C9.4339 7.1574 9.22743 7.50836 8.93379 7.77774L6.34879 10.1487C6.22106 10.2657 6.12589 10.4138 6.0726 10.5786C6.01931 10.7434 6.00973 10.9191 6.04479 11.0887L6.06779 11.1927L6.13179 11.4537C6.18879 11.6737 6.27479 11.9837 6.39579 12.3537C6.63579 13.0887 7.01879 14.0767 7.58879 15.0637C8.15879 16.0507 8.82279 16.8767 9.33879 17.4517C9.60776 17.7509 9.88865 18.0391 10.1808 18.3157L10.2608 18.3897C10.3901 18.5042 10.5468 18.5833 10.7158 18.6192C10.8847 18.6552 11.0601 18.6467 11.2248 18.5947L14.5708 17.5417C14.951 17.4222 15.3582 17.419 15.7402 17.5325C16.1222 17.646 16.4615 17.871 16.7148 18.1787L18.2978 20.1007C18.9578 20.9007 18.8798 22.0767 18.1208 22.7837C16.0468 24.7167 13.1948 25.1137 11.2108 23.5177C8.77951 21.5558 6.72947 19.1637 5.16279 16.4607C3.58461 13.7587 2.52986 10.7845 2.05379 7.69174ZM8.13979 11.2197L10.2858 9.25174C10.8731 8.71297 11.286 8.01105 11.4717 7.236C11.6573 6.46096 11.6072 5.64812 11.3278 4.90174L10.4578 2.58174C10.1029 1.63387 9.3998 0.857036 8.49192 0.409601C7.58405 -0.0378335 6.53971 -0.122186 5.57179 0.173739C2.20679 1.20474 -0.495211 4.22174 0.0767889 7.99074C0.590253 11.3326 1.72914 14.5478 3.43379 17.4677C5.12359 20.3826 7.33464 22.9621 9.95679 25.0777C12.9318 27.4677 16.9058 26.6527 19.4848 24.2477C20.2232 23.5602 20.6713 22.6168 20.7376 21.61C20.8039 20.6033 20.4835 19.6092 19.8418 18.8307L18.2588 16.9087C17.7522 16.2932 17.0733 15.843 16.3091 15.616C15.5449 15.389 14.7303 15.3955 13.9698 15.6347L11.1928 16.5087C11.0685 16.3809 10.9468 16.2506 10.8278 16.1177C10.2569 15.4865 9.75192 14.7986 9.32079 14.0647C8.9006 13.3243 8.55715 12.5429 8.29579 11.7327C8.24028 11.5632 8.18827 11.3925 8.13979 11.2207" fill="#0E3256"/>
</svg>
