<svg width="21" height="26" viewBox="0 0 21 26" fill="none" xmlns="http://www.w3.org/2000/svg">
<path d="M13.9999 5.66699C13.9999 3.64206 12.3588 2.00018 10.3339 2C8.30882 2 6.66687 3.64195 6.66687 5.66699C6.66705 7.69189 8.30893 9.33301 10.3339 9.33301C12.3586 9.33283 13.9997 7.69178 13.9999 5.66699ZM15.9999 5.66699C15.9997 8.79635 13.4632 11.3328 10.3339 11.333C7.20436 11.333 4.66705 8.79646 4.66687 5.66699C4.66687 2.53738 7.20425 0 10.3339 0C13.4633 0.00017607 15.9999 2.53749 15.9999 5.66699Z" fill="#0E3256"/>
<path d="M18.6672 19.0833C18.6672 18.1555 17.9874 17.1115 16.4426 16.2425C14.9292 15.3913 12.771 14.8333 10.3332 14.8333C7.89544 14.8334 5.73716 15.3913 4.22385 16.2425C2.67924 17.1114 2.00021 18.1556 2.00021 19.0833C2.00021 20.6196 2.05396 21.4137 2.79807 22.0199C3.20877 22.3543 3.90985 22.6925 5.13596 22.9408C6.35766 23.1881 8.03443 23.3333 10.3332 23.3333C12.6319 23.3333 14.3088 23.188 15.5305 22.9408C16.7566 22.6926 17.4577 22.3543 17.8684 22.0199C18.6128 21.4136 18.6672 20.6198 18.6672 19.0833ZM20.6672 19.0833C20.6672 20.446 20.7206 22.2767 19.132 23.5706C18.3761 24.1862 17.3267 24.6176 15.9279 24.9007C14.5247 25.1848 12.7009 25.3333 10.3332 25.3333C7.96575 25.3333 6.14263 25.1847 4.73947 24.9007C3.34065 24.6176 2.29132 24.1863 1.53537 23.5706C-0.0534042 22.2766 0.000214358 20.446 0.000214363 19.0833C0.000214363 17.112 1.41016 15.5306 3.24338 14.4993C5.108 13.4505 7.61693 12.8334 10.3332 12.8333C13.0495 12.8333 15.5584 13.4505 17.4231 14.4993C19.2564 15.5306 20.6672 17.112 20.6672 19.0833Z" fill="#0E3256"/>
</svg>
